<?xml version="1.0" standalone="no"?>
<!DOCTYPE svg PUBLIC "-//W3C//DTD SVG 20010904//EN"
 "http://www.w3.org/TR/2001/REC-SVG-20010904/DTD/svg10.dtd">
<svg version="1.0" xmlns="http://www.w3.org/2000/svg"
 width="2052.000000pt" height="2052.000000pt" viewBox="0 0 2052.000000 2052.000000"
 preserveAspectRatio="xMidYMid meet">
<metadata>
Created by potrace 1.11, written by Peter Selinger 2001-2013
</metadata>
<g transform="translate(0.000000,2052.000000) scale(0.100000,-0.100000)"
fill="#000000" stroke="none">
<path d="M19698 18364 c-2 -1 -32 -5 -68 -9 -36 -4 -72 -8 -81 -10 -8 -2 -42
-6 -75 -9 -32 -4 -86 -11 -119 -16 -33 -5 -85 -12 -115 -15 -30 -3 -66 -8 -80
-10 -14 -2 -50 -7 -80 -10 -30 -3 -62 -8 -70 -10 -8 -2 -44 -7 -80 -10 -36 -4
-72 -8 -80 -10 -8 -1 -42 -6 -75 -9 -33 -4 -71 -9 -85 -11 -14 -2 -47 -6 -75
-10 -27 -3 -66 -7 -85 -10 -62 -7 -124 -15 -170 -20 -25 -3 -61 -7 -80 -10
-19 -2 -60 -7 -90 -10 -30 -4 -66 -8 -80 -10 -14 -2 -50 -6 -80 -10 -30 -3
-71 -8 -90 -10 -96 -12 -381 -46 -425 -50 -27 -3 -66 -8 -85 -10 -19 -2 -60
-7 -90 -10 -30 -3 -71 -8 -90 -10 -19 -2 -57 -7 -85 -10 -27 -2 -68 -7 -90 -9
-22 -3 -67 -8 -100 -11 -80 -8 -135 -15 -165 -20 -14 -2 -56 -7 -95 -11 -38
-3 -81 -8 -95 -9 -98 -11 -152 -16 -200 -21 -56 -5 -107 -10 -182 -19 -24 -3
-90 -9 -148 -15 -58 -6 -127 -13 -155 -16 -27 -3 -72 -7 -100 -9 -27 -2 -71
-7 -97 -10 -26 -3 -72 -7 -100 -10 -29 -3 -69 -8 -88 -10 -31 -4 -84 -9 -220
-20 -19 -2 -62 -6 -95 -9 -33 -4 -85 -9 -115 -11 -90 -9 -141 -14 -215 -21
-79 -8 -84 -8 -213 -18 -52 -4 -101 -9 -110 -11 -10 -1 -55 -6 -102 -9 -47 -4
-101 -9 -120 -11 -19 -3 -69 -7 -110 -10 -41 -3 -91 -7 -110 -9 -19 -3 -71 -7
-115 -11 -44 -3 -100 -8 -125 -10 -25 -2 -79 -7 -120 -10 -41 -3 -95 -8 -120
-10 -25 -2 -79 -7 -120 -10 -41 -3 -95 -8 -120 -10 -25 -3 -81 -7 -125 -10
-44 -3 -100 -7 -125 -9 -25 -3 -85 -7 -135 -11 -49 -3 -106 -8 -125 -10 -19
-2 -78 -7 -130 -10 -52 -3 -115 -7 -140 -10 -42 -4 -104 -8 -280 -20 -41 -3
-102 -8 -135 -10 -33 -3 -96 -7 -140 -10 -159 -10 -364 -24 -440 -30 -33 -3
-98 -7 -145 -10 -47 -3 -116 -7 -155 -10 -94 -6 -221 -14 -325 -20 -47 -3
-119 -7 -160 -10 -41 -2 -120 -7 -175 -10 -55 -3 -131 -7 -170 -10 -93 -7
-280 -17 -540 -30 -66 -3 -154 -8 -195 -10 -41 -3 -127 -7 -190 -10 -63 -2
-155 -7 -205 -10 -171 -9 -281 -15 -420 -20 -77 -3 -189 -8 -250 -10 -323 -15
-701 -30 -990 -40 -88 -3 -218 -7 -290 -10 -698 -25 -1623 -47 -2590 -62 -492
-7 -2961 -9 -3705 -2 l-415 3 -73 -28 c-129 -49 -232 -135 -289 -242 -60 -113
-58 -89 -68 -799 -4 -231 -8 -532 -10 -670 -2 -137 -6 -423 -10 -635 -3 -212
-7 -511 -10 -665 -6 -342 -14 -873 -20 -1295 -3 -173 -7 -459 -10 -635 -2
-176 -7 -475 -10 -665 -3 -190 -8 -489 -10 -665 -7 -416 -13 -852 -20 -1300
-3 -198 -7 -487 -10 -642 -8 -464 -17 -1036 -30 -1953 -3 -228 -8 -525 -10
-660 -2 -135 -7 -436 -11 -670 -4 -234 -7 -591 -8 -795 l-1 -370 37 -78 c74
-155 223 -261 403 -285 33 -4 119 -7 190 -5 831 13 2756 18 3535 8 876 -11
1436 -21 2160 -40 589 -16 667 -18 985 -30 153 -6 312 -11 565 -20 91 -3 206
-8 255 -10 50 -2 151 -7 225 -10 74 -3 180 -8 235 -10 55 -2 163 -7 240 -10
77 -3 176 -7 220 -10 44 -2 134 -7 200 -10 66 -3 158 -8 205 -11 82 -4 221
-11 385 -19 44 -2 123 -6 175 -9 52 -3 140 -8 195 -11 55 -3 129 -7 165 -9 36
-3 115 -7 175 -11 61 -3 137 -8 170 -10 33 -3 105 -7 160 -10 55 -3 129 -7
165 -9 36 -3 112 -7 170 -11 58 -3 130 -8 160 -10 30 -2 93 -7 140 -10 47 -3
112 -7 145 -10 98 -7 225 -16 300 -21 39 -2 104 -6 145 -9 92 -7 168 -12 285
-20 50 -3 106 -8 125 -10 19 -2 71 -7 115 -10 106 -7 209 -14 270 -20 28 -2
91 -7 140 -10 88 -6 109 -8 250 -20 39 -3 99 -8 134 -10 35 -3 87 -7 115 -10
28 -2 83 -7 121 -10 39 -3 88 -8 110 -10 22 -2 76 -7 120 -10 44 -3 104 -8
133 -10 80 -7 162 -15 217 -20 28 -3 82 -7 120 -10 97 -8 172 -15 225 -20 25
-3 77 -7 115 -11 39 -3 81 -7 95 -9 14 -2 66 -7 115 -11 50 -3 97 -8 106 -9 9
-2 56 -6 105 -10 48 -4 100 -9 114 -10 14 -2 63 -7 110 -10 47 -4 93 -9 102
-10 9 -2 48 -6 85 -10 69 -6 139 -13 203 -20 19 -2 64 -7 100 -10 36 -3 85 -8
110 -11 105 -11 128 -14 195 -20 39 -3 77 -7 86 -9 8 -2 55 -6 105 -10 49 -4
91 -9 94 -10 3 -2 43 -6 90 -10 47 -4 92 -8 100 -10 8 -1 44 -6 80 -9 36 -4
81 -9 100 -11 19 -2 60 -7 90 -10 30 -3 71 -8 90 -10 62 -7 144 -16 180 -20
36 -4 118 -13 180 -20 19 -2 58 -7 85 -10 28 -2 70 -7 95 -10 25 -3 68 -8 95
-10 28 -3 82 -9 120 -15 74 -10 129 -16 210 -25 28 -3 66 -7 85 -10 19 -3 58
-7 85 -10 28 -4 66 -8 85 -10 19 -3 58 -7 85 -10 28 -3 66 -8 86 -11 49 -6 85
-10 204 -24 55 -6 111 -13 125 -15 14 -2 81 -11 150 -20 69 -8 139 -17 155
-19 17 -3 57 -8 90 -12 33 -3 67 -8 76 -9 9 -2 40 -6 70 -10 30 -3 65 -8 79
-10 32 -5 267 -36 300 -40 14 -1 59 -5 100 -9 41 -4 80 -9 85 -11 10 -2 65 5
136 18 50 10 145 66 196 117 51 52 115 159 127 215 4 17 9 44 13 60 7 36 7
204 -1 825 -13 943 -15 1112 -21 1550 -3 245 -8 598 -10 785 -5 392 -13 960
-20 1525 -3 217 -7 564 -10 770 -5 391 -12 873 -20 1510 -2 206 -7 548 -10
760 -12 856 -15 1113 -20 1515 -3 231 -7 575 -10 765 -2 190 -7 530 -10 755
-6 484 -13 1019 -20 1565 -6 414 -10 774 -20 1530 -3 250 -8 473 -10 495 -32
259 -219 449 -452 459 -34 2 -64 2 -65 0z m6 -562 c3 -5 8 -215 11 -468 3
-252 7 -623 10 -824 2 -201 7 -561 10 -800 3 -239 7 -606 10 -815 9 -722 15
-1191 20 -1580 3 -214 7 -581 10 -815 9 -694 14 -1130 20 -1577 l5 -422 -803
4 c-441 3 -1292 7 -1892 10 -1082 5 -2267 10 -5030 20 -792 3 -3665 8 -6385
10 -2720 3 -4950 5 -4956 5 -8 0 -11 45 -9 153 2 83 6 364 10 622 3 259 8 587
10 730 2 143 7 449 10 680 3 231 8 546 10 700 2 154 7 458 10 675 3 217 7 523
10 680 10 652 23 1546 25 1823 2 172 4 199 19 205 9 4 63 7 121 6 526 -12
2434 -18 3340 -9 586 5 1462 19 1920 30 135 3 326 8 425 10 278 7 607 16 740
20 66 3 199 7 295 10 96 3 234 8 305 10 214 7 454 16 555 20 52 3 163 7 245
10 83 3 191 7 240 10 50 2 153 7 230 10 77 3 176 8 220 10 44 3 141 7 215 10
74 3 164 7 200 10 36 2 133 7 215 10 83 4 175 8 205 10 30 2 111 6 180 10 69
3 154 8 190 10 90 6 237 14 350 20 169 9 284 15 355 20 39 3 115 7 170 10 55
3 125 7 155 10 30 3 96 7 145 10 50 3 126 7 170 10 44 3 116 7 160 10 178 11
366 24 435 30 30 3 93 7 140 10 96 6 181 12 290 21 41 3 102 7 135 9 81 5 217
14 285 20 30 3 89 7 130 10 41 3 95 8 120 10 25 2 77 7 115 10 39 3 102 8 140
11 39 3 96 7 128 9 73 5 186 14 257 20 30 3 84 7 120 10 75 6 165 14 230 20
25 3 79 7 120 10 41 3 93 8 115 10 51 5 220 20 350 30 39 3 95 8 125 11 30 3
78 7 105 9 28 3 74 7 103 10 134 13 161 16 217 21 33 3 78 7 100 9 22 2 69 6
105 10 36 3 81 7 100 10 19 2 71 7 114 10 43 4 86 8 95 10 9 1 57 6 106 9 50
4 101 9 115 11 14 2 57 6 95 10 39 3 81 8 95 10 14 2 57 6 95 10 39 3 89 8
113 10 23 3 61 7 85 10 23 2 74 7 112 10 39 3 81 8 95 10 14 2 57 7 95 10 39
3 86 8 105 11 19 2 58 7 85 9 28 3 70 7 95 10 25 3 68 8 95 10 49 5 93 11 165
20 19 2 64 7 100 10 36 4 76 8 90 10 14 2 54 7 90 10 36 3 76 8 90 10 14 2 54
6 90 10 36 4 76 8 90 10 14 2 54 6 90 9 36 4 75 8 87 10 12 3 50 7 85 10 34 3
72 8 83 10 23 4 96 13 175 21 30 3 66 8 80 10 27 4 79 10 175 20 33 4 71 8 85
10 14 2 50 6 80 10 30 4 66 8 80 10 14 2 52 7 85 11 33 3 61 7 62 8 8 6 83 4
87 -2z m-11502 -8406 c355 -67 635 -267 771 -549 82 -170 104 -281 106 -541
l2 -196 -23 -1 c-30 0 -231 2 -438 6 -91 2 -193 4 -227 4 l-63 1 1 158 c0 170
-2 186 -21 250 -40 130 -231 221 -398 191 -69 -13 -167 -65 -202 -107 -62 -76
-64 -87 -66 -617 -9 -1811 -9 -1766 22 -1840 41 -98 167 -172 307 -179 131 -7
267 56 313 146 33 64 36 100 39 476 l4 382 -67 1 c-56 0 -347 6 -403 8 -14 1
-16 35 -16 314 l1 313 110 -2 c61 -1 262 -5 446 -9 184 -4 408 -8 497 -10 89
-2 166 -6 171 -9 13 -8 8 -1435 -6 -1506 -35 -181 -112 -337 -227 -462 -193
-208 -479 -328 -790 -331 -146 -2 -218 6 -350 37 -161 39 -345 136 -482 257
-166 145 -273 337 -314 559 -9 47 -12 242 -10 700 3 1122 8 1687 13 1696 3 5
8 32 12 59 12 101 68 243 142 357 155 241 466 424 771 454 32 3 59 7 61 9 9 9
238 -5 314 -19z m-5737 -390 c-3 -220 -7 -597 -10 -836 -3 -239 -7 -617 -10
-840 -3 -223 -7 -595 -10 -827 -4 -337 -3 -423 7 -424 7 0 280 -1 605 -1 l593
-1 -4 -336 c-2 -185 -4 -338 -5 -341 -1 -3 -442 -5 -982 -6 l-980 -1 6 451 c3
248 8 597 10 776 2 179 7 503 10 720 8 621 16 1188 20 1525 2 171 5 362 5 425
l2 115 374 1 374 2 -5 -402z m3072 395 l52 -1 -4 -532 c-2 -293 -7 -915 -10
-1383 -5 -716 -12 -1636 -14 -2016 l-1 -96 -177 3 c-98 1 -267 3 -376 4 l-199
2 6 727 c9 1031 24 2795 26 3106 l1 190 322 -2 c177 0 345 -2 374 -2z m5568
-50 c20 -1 20 -9 22 -862 1 -474 4 -863 6 -865 2 -2 113 -6 248 -10 134 -3
270 -7 302 -9 l58 -2 -3 868 -3 869 25 1 c27 1 169 -1 425 -6 88 -1 192 -3
231 -4 l71 -1 2 -782 c1 -431 4 -1381 6 -2111 l5 -1328 -102 5 c-57 3 -134 8
-173 10 -38 3 -110 8 -160 10 -251 15 -310 19 -315 21 -3 2 -5 406 -5 899 0
788 -2 897 -15 901 -8 2 -89 7 -180 10 -91 3 -222 8 -292 11 -119 5 -128 4
-128 -13 0 -10 -2 -414 -3 -898 -2 -847 -3 -880 -20 -878 -21 1 -267 13 -397
18 -221 10 -324 16 -328 20 -2 2 -5 934 -6 2070 l-1 2066 355 -5 c195 -3 364
-5 375 -5z m2885 -45 c173 -4 414 -9 535 -11 121 -2 355 -7 520 -10 426 -9
617 -14 621 -17 2 -3 7 -601 5 -681 l-1 -27 -177 5 c-98 3 -256 7 -352 10
l-173 6 6 -913 c4 -502 9 -1293 12 -1758 3 -465 6 -873 7 -908 l2 -64 -115 7
c-63 4 -122 9 -131 10 -9 2 -65 6 -125 10 -60 4 -125 8 -144 10 -19 2 -80 7
-135 10 -55 4 -101 8 -102 9 -2 1 -5 450 -8 997 -12 2315 -15 2602 -19 2606
-5 5 -115 10 -450 18 -132 3 -242 8 -245 11 -10 9 -12 677 -2 683 5 3 42 5 83
4 40 -1 215 -4 388 -7z m3887 -62 c503 -87 900 -525 928 -1024 9 -161 12 -439
4 -451 -4 -6 -11 -9 -15 -6 -5 3 -79 8 -164 12 -85 3 -182 8 -215 10 -33 2
-123 6 -200 10 -76 3 -140 7 -141 8 -1 1 -5 77 -8 169 -4 144 -9 177 -31 244
-46 136 -98 204 -190 246 -41 18 -68 22 -155 23 -96 0 -109 -2 -150 -27 -137
-80 -181 -206 -174 -497 4 -208 24 -279 96 -350 52 -52 142 -100 448 -242 266
-123 408 -194 420 -208 3 -3 30 -23 60 -43 73 -49 192 -168 242 -242 73 -106
145 -291 163 -417 3 -24 8 -51 10 -59 2 -8 7 -49 10 -90 4 -41 10 -104 14
-140 8 -77 6 -467 -2 -525 -4 -22 -9 -60 -12 -85 -10 -78 -46 -243 -67 -305
-25 -78 -99 -216 -149 -281 -110 -143 -289 -255 -459 -288 -14 -3 -36 -7 -50
-10 -48 -11 -146 -20 -215 -19 -482 1 -900 244 -1126 654 -46 85 -102 231
-118 309 -6 30 -14 66 -17 80 -3 14 -7 123 -10 243 l-5 218 73 -6 c83 -7 140
-11 278 -20 52 -3 118 -8 145 -10 28 -2 95 -7 150 -10 55 -4 101 -8 103 -10 1
-1 4 -76 6 -166 5 -187 8 -211 46 -295 35 -79 89 -137 153 -167 65 -30 101
-38 203 -42 202 -9 300 73 322 270 9 80 8 432 -1 519 -24 226 -57 261 -392
425 -93 46 -238 116 -321 157 -315 154 -501 315 -603 520 -44 90 -97 254 -117
364 -3 14 -7 32 -9 40 -25 88 -26 457 -1 585 2 11 6 36 10 55 35 193 108 366
214 503 197 258 461 384 807 385 72 0 167 -6 212 -14z"/>
<path d="M17728 16265 c-3 -3 -35 -6 -228 -21 -36 -3 -74 -7 -86 -9 -11 -1
-65 -6 -120 -10 -54 -4 -104 -12 -110 -18 -6 -7 -76 -165 -154 -352 -169 -402
-347 -822 -360 -850 -5 -11 -59 -137 -120 -280 -61 -143 -115 -269 -120 -280
-6 -11 -32 -72 -59 -135 -27 -63 -53 -116 -57 -117 -5 -2 -10 176 -12 395 -1
218 -5 575 -7 792 -2 217 -4 478 -4 578 l-1 184 -92 -7 c-91 -6 -173 -12 -273
-20 -27 -2 -90 -7 -140 -10 -49 -4 -92 -8 -93 -10 -4 -4 -2 -620 3 -1225 2
-195 6 -744 10 -1220 8 -1062 14 -1793 15 -1801 0 -3 96 -5 213 -3 116 1 253
3 302 3 l91 1 -3 323 c-2 177 -4 466 -6 641 l-3 319 156 309 c86 171 161 309
166 309 5 -1 16 -23 26 -49 9 -26 27 -76 41 -112 49 -132 441 -1188 527 -1420
37 -102 78 -211 90 -243 l22 -58 319 3 c175 2 319 6 319 10 0 8 -399 1046
-420 1093 -5 11 -43 110 -85 220 -42 110 -83 214 -90 230 -7 17 -67 172 -135
345 -67 173 -126 324 -131 335 -5 11 -38 97 -75 190 -63 163 -65 171 -51 200
8 17 24 50 35 75 32 72 287 639 316 702 14 31 26 59 26 62 0 3 20 49 45 102
25 53 45 98 45 100 0 2 11 27 24 56 13 29 40 88 60 131 20 44 36 81 36 83 0 2
14 34 31 71 42 91 169 381 169 385 0 4 -48 7 -52 3z"/>
<path d="M14197 15994 c-1 -1 -51 -5 -112 -8 -60 -4 -150 -9 -200 -12 -49 -3
-110 -7 -135 -9 -25 -2 -57 -4 -71 -4 l-26 -1 4 -827 c2 -456 5 -1016 6 -1246
2 -230 0 -420 -3 -422 -3 -2 -32 67 -64 153 -33 86 -74 195 -92 242 -18 47
-49 130 -69 185 -21 55 -48 127 -60 160 -58 149 -105 273 -118 310 -24 69
-168 449 -177 470 -5 11 -31 81 -59 155 -50 135 -132 352 -176 465 -12 33 -44
115 -69 181 l-47 122 -67 -3 c-37 -2 -110 -6 -162 -9 -52 -3 -141 -8 -197 -12
-55 -3 -109 -7 -120 -9 -10 -2 -21 -4 -25 -4 -6 -1 -5 -1574 3 -3564 l2 -507
301 3 301 3 -2 1234 c-2 770 1 1230 6 1224 8 -7 129 -318 266 -679 25 -66 27
-71 275 -720 94 -247 216 -567 270 -710 54 -143 105 -278 114 -300 l16 -40
213 3 c116 1 244 4 282 5 l70 2 -1 650 c-2 554 -13 2814 -17 3352 l-2 172 -28
-2 c-16 -1 -29 -3 -30 -3z"/>
<path d="M9605 15785 c-97 -15 -240 -62 -334 -109 -246 -124 -414 -319 -495
-571 -42 -134 -45 -171 -46 -695 -5 -1603 -3 -1845 9 -1905 46 -220 145 -384
315 -522 270 -218 618 -290 966 -197 400 106 669 396 728 784 9 59 8 2359 -1
2425 -22 167 -66 284 -158 420 -110 163 -299 289 -514 344 -44 11 -93 23 -110
27 -59 12 -282 11 -360 -1z m290 -576 c122 -37 193 -105 232 -219 l22 -65 1
-1135 c0 -996 -2 -1142 -15 -1195 -37 -141 -145 -236 -308 -269 -186 -38 -389
46 -456 189 -11 24 -25 63 -31 87 -6 28 -9 436 -7 1178 4 1107 4 1136 24 1192
21 60 75 134 121 166 117 83 286 112 417 71z"/>
<path d="M7357 15694 c-3 -2 -616 -16 -1312 -29 -192 -4 -352 -8 -354 -11 -3
-2 -5 -121 -6 -263 l-2 -259 226 3 c383 6 425 6 449 6 l23 -1 -6 -1012 c-3
-557 -8 -1318 -10 -1691 l-4 -678 304 2 305 1 1 462 c0 253 2 740 4 1081 2
341 5 896 7 1233 1 336 5 613 8 613 6 2 91 5 425 13 142 4 261 9 264 12 3 2 5
122 6 264 l0 260 -163 -2 c-90 -2 -164 -4 -165 -4z"/>
<path d="M3542 15668 c-107 -8 -274 -46 -347 -79 -27 -12 -53 -23 -56 -23 -25
-3 -173 -110 -225 -163 -149 -148 -228 -295 -280 -518 -22 -97 -28 -161 -28
-300 -1 -159 6 -226 38 -370 40 -181 163 -358 319 -461 79 -53 235 -128 342
-167 39 -14 93 -34 120 -45 28 -10 118 -45 200 -77 369 -142 396 -181 395
-580 0 -293 -20 -395 -95 -483 -66 -79 -190 -123 -345 -123 -206 1 -321 66
-391 225 -29 66 -32 91 -33 229 l-1 117 -302 0 -303 0 0 -164 c0 -140 3 -177
24 -258 52 -205 180 -389 355 -512 139 -97 257 -144 452 -179 76 -14 348 -16
399 -3 14 4 43 9 65 12 60 9 223 63 285 94 219 111 375 315 440 573 15 62 31
137 34 167 4 30 10 82 15 115 11 82 6 409 -9 525 -37 291 -141 460 -366 595
-38 22 -98 54 -134 69 -36 15 -74 31 -85 36 -11 5 -48 18 -81 29 -111 36 -418
151 -479 179 -131 59 -194 115 -233 205 -23 54 -33 260 -19 394 8 78 47 193
81 238 75 98 185 147 327 148 275 0 419 -168 415 -485 l-1 -105 302 1 c294 1
302 1 305 21 10 61 -1 347 -17 420 -44 209 -150 366 -345 509 -99 73 -267 149
-381 171 -145 29 -218 34 -357 23z"/>
</g>
</svg>
